<svg width="11" height="9" viewBox="0 0 11 9" fill="none" xmlns="http://www.w3.org/2000/svg">
<path d="M10.1118 1.68606L9.30686 0.881137C9.1898 0.764099 9.0507 0.705566 8.88968 0.705566C8.72887 0.705566 8.58967 0.764099 8.4727 0.881137L3.73872 5.61509L1.81454 3.69078C1.69745 3.57367 1.5584 3.51521 1.39749 3.51521C1.23655 3.51521 1.09755 3.57367 0.980434 3.69078L0.175617 4.4956C0.0585528 4.61267 -3.05176e-05 4.75172 -3.05176e-05 4.91273C-3.05176e-05 5.07367 0.0585528 5.21267 0.175617 5.32979L3.32177 8.47594C3.43886 8.59308 3.57791 8.65151 3.73883 8.65151C3.89974 8.65151 4.03877 8.59311 4.15588 8.47594L10.1117 2.52014C10.2287 2.4031 10.2874 2.26402 10.2874 2.10309C10.2874 1.94215 10.2288 1.8031 10.1118 1.68606Z" fill="#7700D1"/>
</svg>
