<svg width="150" height="326" viewBox="0 0 150 326" fill="none" xmlns="http://www.w3.org/2000/svg">
<g opacity="0.05" clip-path="url(#clip0_2_1244)">
<path d="M58.5514 157.753C57.2715 157.753 56.2436 156.722 56.2436 155.438V5.31484H-54.3388V155.438C-54.3388 156.722 -55.3667 157.753 -56.6467 157.753C-57.9267 157.753 -58.9545 156.722 -58.9545 155.438V2.99897L-56.6467 0.683105H58.5708L60.8787 2.99897V155.438C60.8787 156.722 59.8314 157.753 58.5514 157.753Z" fill="white"/>
<path d="M7.83703 25.4376H-5.91301C-7.19298 25.4376 -8.22083 24.4062 -8.22083 23.1218C-8.22083 21.8373 -7.19298 20.8059 -5.91301 20.8059H7.83703C9.11701 20.8059 10.1449 21.8373 10.1449 23.1218C10.1449 24.3867 9.11701 25.4376 7.83703 25.4376Z" fill="white"/>
<path d="M7.83703 44.0036H-5.91301C-7.19298 44.0036 -8.22083 42.9721 -8.22083 41.6877C-8.22083 40.4033 -7.19298 39.3718 -5.91301 39.3718H7.83703C9.11701 39.3718 10.1449 40.4033 10.1449 41.6877C10.1449 42.9721 9.11701 44.0036 7.83703 44.0036Z" fill="white"/>
<path d="M7.83703 62.5695H-5.91301C-7.19298 62.5695 -8.22083 61.538 -8.22083 60.2536C-8.22083 58.9692 -7.19298 57.9377 -5.91301 57.9377H7.83703C9.11701 57.9377 10.1449 58.9692 10.1449 60.2536C10.1449 61.538 9.11701 62.5695 7.83703 62.5695Z" fill="white"/>
<path d="M7.83703 81.1352H-5.91301C-7.19298 81.1352 -8.22083 80.1037 -8.22083 78.8193C-8.22083 77.5349 -7.19298 76.5034 -5.91301 76.5034H7.83703C9.11701 76.5034 10.1449 77.5349 10.1449 78.8193C10.1449 80.1037 9.11701 81.1352 7.83703 81.1352Z" fill="white"/>
<path d="M7.83703 99.7011H-5.91301C-7.19298 99.7011 -8.22083 98.6696 -8.22083 97.3852C-8.22083 96.1008 -7.19298 95.0693 -5.91301 95.0693H7.83703C9.11701 95.0693 10.1449 96.1008 10.1449 97.3852C10.1449 98.6696 9.11701 99.7011 7.83703 99.7011Z" fill="white"/>
<path d="M7.83703 118.267H-5.91301C-7.19298 118.267 -8.22083 117.236 -8.22083 115.951C-8.22083 114.667 -7.19298 113.635 -5.91301 113.635H7.83703C9.11701 113.635 10.1449 114.667 10.1449 115.951C10.1449 117.236 9.11701 118.267 7.83703 118.267Z" fill="white"/>
<path d="M7.83703 136.833H-5.91301C-7.19298 136.833 -8.22083 135.801 -8.22083 134.517C-8.22083 133.233 -7.19298 132.201 -5.91301 132.201H7.83703C9.11701 132.201 10.1449 133.233 10.1449 134.517C10.1449 135.801 9.11701 136.833 7.83703 136.833Z" fill="white"/>
<path d="M40.3214 25.4376H26.5713C25.2913 25.4376 24.2635 24.4062 24.2635 23.1218C24.2635 21.8373 25.2913 20.8059 26.5713 20.8059H40.3214C41.6014 20.8059 42.6293 21.8373 42.6293 23.1218C42.6293 24.3867 41.6014 25.4376 40.3214 25.4376Z" fill="white"/>
<path d="M40.3214 44.0036H26.5713C25.2913 44.0036 24.2635 42.9721 24.2635 41.6877C24.2635 40.4033 25.2913 39.3718 26.5713 39.3718H40.3214C41.6014 39.3718 42.6293 40.4033 42.6293 41.6877C42.6293 42.9721 41.6014 44.0036 40.3214 44.0036Z" fill="white"/>
<path d="M40.3214 62.5695H26.5713C25.2913 62.5695 24.2635 61.538 24.2635 60.2536C24.2635 58.9692 25.2913 57.9377 26.5713 57.9377H40.3214C41.6014 57.9377 42.6293 58.9692 42.6293 60.2536C42.6293 61.538 41.6014 62.5695 40.3214 62.5695Z" fill="white"/>
<path d="M40.3214 81.1352H26.5713C25.2913 81.1352 24.2635 80.1037 24.2635 78.8193C24.2635 77.5349 25.2913 76.5034 26.5713 76.5034H40.3214C41.6014 76.5034 42.6293 77.5349 42.6293 78.8193C42.6293 80.1037 41.6014 81.1352 40.3214 81.1352Z" fill="white"/>
<path d="M40.3214 99.7011H26.5713C25.2913 99.7011 24.2635 98.6696 24.2635 97.3852C24.2635 96.1008 25.2913 95.0693 26.5713 95.0693H40.3214C41.6014 95.0693 42.6293 96.1008 42.6293 97.3852C42.6293 98.6696 41.6014 99.7011 40.3214 99.7011Z" fill="white"/>
<path d="M40.3214 118.267H26.5713C25.2913 118.267 24.2635 117.236 24.2635 115.951C24.2635 114.667 25.2913 113.635 26.5713 113.635H40.3214C41.6014 113.635 42.6293 114.667 42.6293 115.951C42.6293 117.236 41.6014 118.267 40.3214 118.267Z" fill="white"/>
<path d="M40.3214 136.833H26.5713C25.2913 136.833 24.2635 135.801 24.2635 134.517C24.2635 133.233 25.2913 132.201 26.5713 132.201H40.3214C41.6014 132.201 42.6293 133.233 42.6293 134.517C42.6293 135.801 41.6014 136.833 40.3214 136.833Z" fill="white"/>
<path d="M111.011 115.795C109.731 115.795 108.703 114.764 108.703 113.479V99.6816C108.703 98.3972 109.731 97.3657 111.011 97.3657C112.291 97.3657 113.319 98.3972 113.319 99.6816V113.479C113.319 114.764 112.291 115.795 111.011 115.795Z" fill="white"/>
<path d="M111.011 143.722C109.731 143.722 108.703 142.69 108.703 141.406V127.608C108.703 126.324 109.731 125.292 111.011 125.292C112.291 125.292 113.319 126.324 113.319 127.608V141.406C113.319 142.69 112.291 143.722 111.011 143.722Z" fill="white"/>
<path d="M111.011 87.8881C109.731 87.8881 108.703 86.8567 108.703 85.5723V71.7744C108.703 70.4899 109.731 69.4585 111.011 69.4585C112.291 69.4585 113.319 70.4899 113.319 71.7744V85.5723C113.319 86.8372 112.291 87.8881 111.011 87.8881Z" fill="white"/>
<path d="M130.405 115.795C129.125 115.795 128.097 114.764 128.097 113.479V99.6816C128.097 98.3972 129.125 97.3657 130.405 97.3657C131.685 97.3657 132.713 98.3972 132.713 99.6816V113.479C132.713 114.764 131.685 115.795 130.405 115.795Z" fill="white"/>
<path d="M130.405 143.722C129.125 143.722 128.097 142.69 128.097 141.406V127.608C128.097 126.324 129.125 125.292 130.405 125.292C131.685 125.292 132.713 126.324 132.713 127.608V141.406C132.713 142.69 131.685 143.722 130.405 143.722Z" fill="white"/>
<path d="M130.405 87.8881C129.125 87.8881 128.097 86.8567 128.097 85.5723V71.7744C128.097 70.4899 129.125 69.4585 130.405 69.4585C131.685 69.4585 132.713 70.4899 132.713 71.7744V85.5723C132.713 86.8372 131.685 87.8881 130.405 87.8881Z" fill="white"/>
<path d="M149.798 115.795C148.518 115.795 147.491 114.764 147.491 113.479V99.6816C147.491 98.3972 148.518 97.3657 149.798 97.3657C151.078 97.3657 152.106 98.3972 152.106 99.6816V113.479C152.106 114.764 151.078 115.795 149.798 115.795Z" fill="white"/>
<path d="M149.798 143.722C148.518 143.722 147.491 142.69 147.491 141.406V127.608C147.491 126.324 148.518 125.292 149.798 125.292C151.078 125.292 152.106 126.324 152.106 127.608V141.406C152.106 142.69 151.078 143.722 149.798 143.722Z" fill="white"/>
<path d="M149.798 87.8881C148.518 87.8881 147.491 86.8567 147.491 85.5723V71.7744C147.491 70.4899 148.518 69.4585 149.798 69.4585C151.078 69.4585 152.106 70.4899 152.106 71.7744V85.5723C152.106 86.8372 151.078 87.8881 149.798 87.8881Z" fill="white"/>
<path d="M308.807 325.683H-590.806C-592.086 325.683 -593.113 324.652 -593.113 323.367C-593.113 322.083 -592.086 321.051 -590.806 321.051H308.788C310.068 321.051 311.095 322.083 311.095 323.367C311.095 324.652 310.068 325.683 308.807 325.683Z" fill="white"/>
<path d="M171.461 157.753C170.181 157.753 169.153 156.722 169.153 155.438V58.5409H91.6563V155.438C91.6563 156.722 90.6285 157.753 89.3485 157.753C88.0685 157.753 87.0406 156.722 87.0406 155.438V56.225L89.3485 53.9092H171.461L173.769 56.225V155.438C173.769 156.722 172.741 157.753 171.461 157.753Z" fill="white"/>
<path d="M224.6 153.122H-252.891C-258.748 153.239 -264.43 154.951 -269.356 158.084C-273.371 160.634 -276.745 164.039 -279.266 168.048H-279.286H-291.698C-306.708 168.048 -318.926 180.309 -318.926 195.372C-318.926 199.206 -315.804 202.339 -311.983 202.339C-308.163 202.339 -305.04 199.206 -305.04 195.372C-305.04 187.996 -299.067 181.983 -291.698 181.983H-285.744C-293.715 202.203 -297.186 223.474 -300.813 245.795C-301.065 247.372 -301.317 248.929 -301.588 250.505C-301.608 250.622 -301.647 250.914 -301.647 251.965V267.514C-302.364 268.798 -303.683 271.737 -304.09 276.777C-304.536 282.363 -302.519 286.8 -301.647 288.396V296.861C-301.647 304.743 -295.247 311.165 -287.392 311.165H-187.69C-182.356 318.405 -173.978 322.667 -164.941 322.667C-155.632 322.667 -147.37 318.132 -142.212 311.165H68.2287C73.3874 318.132 81.6491 322.667 90.958 322.667C100.325 322.667 108.645 318.074 113.784 311.029C114.036 311.126 114.289 311.165 114.579 311.165H212.537C227.043 311.165 238.854 299.313 238.854 284.757V167.426C238.854 159.525 232.454 153.122 224.6 153.122ZM-252.27 157.754H224.6C229.913 157.754 234.238 162.093 234.238 167.426V168.048H-273.623C-268.522 161.587 -260.745 157.754 -252.27 157.754ZM177.318 230.382C176.348 229.545 174.894 229.662 174.06 230.635L158.836 248.559H130.986V172.68H171.131L156.334 190.098C155.5 191.071 155.616 192.531 156.586 193.367C157.013 193.737 157.556 193.912 158.079 193.912C158.739 193.912 159.379 193.64 159.844 193.095L177.202 172.68H183.698L145.823 217.246C144.989 218.219 145.105 219.679 146.075 220.516C146.501 220.885 147.044 221.06 147.568 221.06C148.227 221.06 148.867 220.788 149.333 220.243L189.264 173.264C189.419 173.089 189.536 172.875 189.633 172.661H198.205V248.539H164.906L177.57 233.632C178.404 232.679 178.288 231.2 177.318 230.382ZM97.8428 248.559L110.507 233.652C111.341 232.679 111.224 231.219 110.255 230.382C109.285 229.545 107.831 229.662 106.997 230.635L91.7726 248.559H66.2312V172.68H108.141L80.1364 205.608C79.3025 206.581 79.4188 208.041 80.3885 208.878C80.8152 209.248 81.3582 209.423 81.8818 209.423C82.5412 209.423 83.1812 209.15 83.6467 208.605L114.192 172.661H126.351V248.539H97.8428V248.559ZM1.12677 248.559V172.68H45.4994L17.495 205.608C16.661 206.581 16.7774 208.041 17.7471 208.878C18.1737 209.248 18.7168 209.423 19.2404 209.423C19.8998 209.423 20.5398 209.15 21.0052 208.605L51.5502 172.661H61.5961V248.539H1.12677V248.559ZM-26.6255 228.339C-27.5952 227.502 -29.0497 227.619 -29.8837 228.592L-46.8531 248.539H-53.35L-15.8621 204.441C-15.0282 203.468 -15.1445 202.008 -16.1142 201.171C-17.0839 200.334 -18.5384 200.451 -19.3723 201.424L-59.3038 248.423C-59.3426 248.462 -59.362 248.501 -59.4008 248.559H-70.7073V172.68H-3.48892V248.559H-40.7635L-26.354 231.608C-25.5395 230.635 -25.6559 229.176 -26.6255 228.339ZM-169.44 248.559L-156.776 233.652C-155.942 232.679 -156.059 231.219 -157.028 230.382C-157.998 229.545 -159.453 229.662 -160.286 230.635L-175.51 248.559H-200.373V172.68H-163.234L-178.032 190.098C-178.866 191.071 -178.749 192.531 -177.779 193.367C-177.353 193.737 -176.81 193.912 -176.286 193.912C-175.627 193.912 -174.987 193.64 -174.521 193.095L-157.164 172.68H-150.667L-188.543 217.246C-189.377 218.219 -189.26 219.679 -188.291 220.516C-187.864 220.885 -187.321 221.06 -186.798 221.06C-186.138 221.06 -185.498 220.788 -185.033 220.243L-145.101 173.264C-144.946 173.089 -144.83 172.875 -144.733 172.661H-140.544V248.539H-169.44V248.559ZM-224.324 248.559V172.68H-204.989V248.559H-224.324ZM-243.214 232.951C-244.183 232.114 -245.638 232.231 -246.472 233.204L-259.504 248.539H-266.001L-241.197 219.348C-240.363 218.375 -240.479 216.915 -241.449 216.078C-242.418 215.242 -243.873 215.358 -244.707 216.331L-271.567 247.936C-271.722 248.111 -271.839 248.325 -271.936 248.539H-272.188V172.68H-232.644L-260.668 205.608C-261.502 206.581 -261.385 208.041 -260.416 208.878C-259.989 209.248 -259.446 209.423 -258.922 209.423C-258.263 209.423 -257.623 209.15 -257.158 208.605L-228.94 175.444V248.559H-253.434L-242.961 236.24C-242.128 235.248 -242.244 233.788 -243.214 232.951ZM-135.909 172.68H-88.6657L-116.67 205.608C-117.504 206.581 -117.388 208.041 -116.418 208.878C-115.991 209.248 -115.448 209.423 -114.925 209.423C-114.265 209.423 -113.625 209.15 -113.16 208.605L-82.6149 172.661H-75.3423V248.539H-135.928V172.68H-135.909ZM202.801 172.68H220.953V242.254C220.953 245.737 218.122 248.559 214.67 248.559H202.801V172.68ZM-291.698 177.331C-301.588 177.331 -309.656 185.408 -309.656 195.352C-309.656 196.637 -310.703 197.688 -311.983 197.688C-313.263 197.688 -314.311 196.637 -314.311 195.352C-314.311 182.839 -304.168 172.661 -291.717 172.661H-281.729C-282.466 174.218 -283.164 175.775 -283.843 177.331H-291.698ZM-276.842 173.186L-276.823 173.147V248.559H-296.604C-296.488 247.878 -296.391 247.197 -296.275 246.535C-292.027 220.535 -288.032 195.995 -276.842 173.186ZM-298.505 284.095C-299.125 282.402 -299.707 279.93 -299.494 277.147C-299.203 273.489 -298.369 271.27 -297.865 270.239L-286.054 267.845C-288.517 272.224 -292.9 279.132 -298.505 284.095ZM-297.031 296.861V288.921C-286.597 280.592 -279.945 266.191 -279.654 265.568L-282.214 262.337L-297.031 265.354V253.21H-276.803V306.553H-287.412C-292.726 306.533 -297.031 302.194 -297.031 296.861ZM-164.96 318.035C-173.067 318.035 -180.514 313.948 -184.916 307.098C-187.36 303.283 -188.659 298.846 -188.659 294.273C-188.659 281.156 -178.032 270.511 -164.98 270.511C-151.928 270.511 -141.3 281.176 -141.3 294.273C-141.261 307.37 -151.889 318.035 -164.96 318.035ZM90.9386 318.035C77.8673 318.035 67.259 307.37 67.259 294.273C67.259 281.156 77.8867 270.511 90.9386 270.511C103.991 270.511 114.618 281.176 114.618 294.273C114.638 307.37 104.01 318.035 90.9386 318.035ZM212.537 306.533H116.48C118.264 302.816 119.253 298.652 119.253 294.254C119.253 278.587 106.551 265.84 90.9386 265.84C75.3268 265.84 62.6239 278.587 62.6239 294.254C62.6239 298.652 63.6324 302.816 65.3972 306.533H-139.419C-137.635 302.816 -136.646 298.652 -136.646 294.254C-136.646 278.587 -149.348 265.84 -164.96 265.84C-180.572 265.84 -193.275 278.587 -193.275 294.254C-193.275 298.535 -192.325 302.719 -190.502 306.533H-272.226V253.191H200.474H214.651C220.663 253.191 225.569 248.286 225.569 242.234V172.68H234.199V284.757C234.219 296.764 224.503 306.533 212.537 306.533Z" fill="white"/>
<path d="M90.9388 280.358C83.2977 280.358 77.0724 286.605 77.0724 294.273C77.0724 301.941 83.2977 308.188 90.9388 308.188C98.5798 308.188 104.805 301.941 104.805 294.273C104.805 286.586 98.5798 280.358 90.9388 280.358ZM90.9388 303.517C85.8383 303.517 81.7075 299.352 81.7075 294.254C81.7075 289.135 85.8576 284.99 90.9388 284.99C96.0199 284.99 100.17 289.155 100.17 294.254C100.189 299.372 96.0392 303.517 90.9388 303.517Z" fill="white"/>
<path d="M111.011 115.795C109.731 115.795 108.703 114.764 108.703 113.479V99.6816C108.703 98.3972 109.731 97.3657 111.011 97.3657C112.291 97.3657 113.319 98.3972 113.319 99.6816V113.479C113.319 114.764 112.291 115.795 111.011 115.795Z" fill="white"/>
<path d="M111.011 143.722C109.731 143.722 108.703 142.69 108.703 141.406V127.608C108.703 126.324 109.731 125.292 111.011 125.292C112.291 125.292 113.319 126.324 113.319 127.608V141.406C113.319 142.69 112.291 143.722 111.011 143.722Z" fill="white"/>
<path d="M111.011 87.8881C109.731 87.8881 108.703 86.8567 108.703 85.5723V71.7744C108.703 70.4899 109.731 69.4585 111.011 69.4585C112.291 69.4585 113.319 70.4899 113.319 71.7744V85.5723C113.319 86.8372 112.291 87.8881 111.011 87.8881Z" fill="white"/>
<path d="M130.405 115.795C129.125 115.795 128.097 114.764 128.097 113.479V99.6816C128.097 98.3972 129.125 97.3657 130.405 97.3657C131.685 97.3657 132.713 98.3972 132.713 99.6816V113.479C132.713 114.764 131.685 115.795 130.405 115.795Z" fill="white"/>
<path d="M130.405 143.722C129.125 143.722 128.097 142.69 128.097 141.406V127.608C128.097 126.324 129.125 125.292 130.405 125.292C131.685 125.292 132.713 126.324 132.713 127.608V141.406C132.713 142.69 131.685 143.722 130.405 143.722Z" fill="white"/>
<path d="M130.405 87.8881C129.125 87.8881 128.097 86.8567 128.097 85.5723V71.7744C128.097 70.4899 129.125 69.4585 130.405 69.4585C131.685 69.4585 132.713 70.4899 132.713 71.7744V85.5723C132.713 86.8372 131.685 87.8881 130.405 87.8881Z" fill="white"/>
<path d="M149.798 115.795C148.518 115.795 147.491 114.764 147.491 113.479V99.6816C147.491 98.3972 148.518 97.3657 149.798 97.3657C151.078 97.3657 152.106 98.3972 152.106 99.6816V113.479C152.106 114.764 151.078 115.795 149.798 115.795Z" fill="white"/>
<path d="M149.798 143.722C148.518 143.722 147.491 142.69 147.491 141.406V127.608C147.491 126.324 148.518 125.292 149.798 125.292C151.078 125.292 152.106 126.324 152.106 127.608V141.406C152.106 142.69 151.078 143.722 149.798 143.722Z" fill="white"/>
<path d="M149.798 87.8881C148.518 87.8881 147.491 86.8567 147.491 85.5723V71.7744C147.491 70.4899 148.518 69.4585 149.798 69.4585C151.078 69.4585 152.106 70.4899 152.106 71.7744V85.5723C152.106 86.8372 151.078 87.8881 149.798 87.8881Z" fill="white"/>
<path d="M171.461 157.753C170.181 157.753 169.153 156.722 169.153 155.438V58.5409H91.6563V155.438C91.6563 156.722 90.6285 157.753 89.3485 157.753C88.0685 157.753 87.0406 156.722 87.0406 155.438V56.225L89.3485 53.9092H171.461L173.769 56.225V155.438C173.769 156.722 172.741 157.753 171.461 157.753Z" fill="white"/>
</g>
<defs>
<clipPath id="clip0_2_1244">
<rect width="396" height="325" fill="white" transform="translate(0.000610352 0.683105)"/>
</clipPath>
</defs>
</svg>
