<svg width="342" height="304" viewBox="0 0 342 304" fill="none" xmlns="http://www.w3.org/2000/svg">
<g opacity="0.05" clip-path="url(#clip0_2_1067)">
<path d="M300.3 296.628C298.802 296.628 297.598 295.419 297.598 293.914V187.186C297.598 185.681 298.802 184.472 300.3 184.472C301.798 184.472 303.001 185.681 303.001 187.186V293.914C303.001 295.419 301.798 296.628 300.3 296.628Z" fill="white"/>
<path d="M315.714 189.9H284.886C280.459 189.9 276.85 186.274 276.85 181.827V161.827C276.85 157.38 280.459 153.754 284.886 153.754H315.714C320.14 153.754 323.75 157.38 323.75 161.827V181.827C323.75 186.297 320.14 189.9 315.714 189.9ZM284.886 159.204C283.433 159.204 282.275 160.39 282.275 161.827V181.827C282.275 183.286 283.456 184.449 284.886 184.449H315.714C317.167 184.449 318.324 183.264 318.324 181.827V161.827C318.324 160.367 317.144 159.204 315.714 159.204H284.886Z" fill="white"/>
<path d="M311.491 169.421H300.028C298.529 169.421 297.326 168.212 297.326 166.707C297.326 165.202 298.529 163.993 300.028 163.993H311.491C312.99 163.993 314.193 165.202 314.193 166.707C314.193 168.19 312.99 169.421 311.491 169.421Z" fill="white"/>
<path d="M292.241 169.421H289.108C287.61 169.421 286.407 168.212 286.407 166.707C286.407 165.202 287.61 163.993 289.108 163.993H292.241C293.739 163.993 294.943 165.202 294.943 166.707C294.965 168.19 293.739 169.421 292.241 169.421Z" fill="white"/>
<path d="M311.491 179.683H300.027C298.529 179.683 297.326 178.475 297.326 176.97C297.326 175.465 298.529 174.256 300.027 174.256H311.491C312.99 174.256 314.193 175.465 314.193 176.97C314.193 178.475 312.99 179.683 311.491 179.683Z" fill="white"/>
<path d="M292.241 179.683H289.108C287.61 179.683 286.407 178.475 286.407 176.97C286.407 175.465 287.61 174.256 289.108 174.256H292.241C293.739 174.256 294.943 175.465 294.943 176.97C294.943 178.475 293.739 179.683 292.241 179.683Z" fill="white"/>
<path d="M274.625 140.39L273.059 135.464H2.89567L1.32932 140.39L19.5581 153.548V294.575L22.2595 297.288H253.672L256.374 294.575V153.548L274.625 140.39ZM264.66 140.892L252.81 149.444H23.1449L11.295 140.892H264.66ZM100.646 154.871V253.526H68.7509L66.0495 256.239V268.166L68.7509 270.88H100.668V291.861H36.8335V154.871H100.646ZM169.883 154.871V253.526H106.071V154.871H169.883ZM172.653 265.43C172.63 265.43 172.607 265.43 172.585 265.43C172.562 265.43 172.539 265.43 172.517 265.43H103.415C103.392 265.43 103.37 265.43 103.347 265.43C103.324 265.43 103.302 265.43 103.279 265.43H71.4523V258.953H204.502V265.43H172.653ZM106.071 270.88H169.906V291.861H106.071V270.88ZM175.286 270.88H207.204L209.905 268.166V256.239L207.204 253.526H175.286V154.871H239.121V291.861H175.286V270.88ZM24.9609 154.871H31.408V291.861H24.9609V154.871ZM250.994 291.838H244.524V154.871H250.971V291.838H250.994Z" fill="white"/>
<path d="M471.081 302.184H76.5538C75.2023 302.184 74.1169 301.094 74.1169 299.736C74.1169 298.379 75.2023 297.288 76.5538 297.288H471.081C472.433 297.288 473.518 298.379 473.518 299.736C473.518 301.094 472.433 302.184 471.081 302.184Z" fill="white"/>
<path d="M78.0042 91.7954C76.7242 91.7954 75.6964 90.7639 75.6964 89.4795V75.6816C75.6964 74.3972 76.7242 73.3657 78.0042 73.3657C79.2841 73.3657 80.312 74.3972 80.312 75.6816V89.4795C80.312 90.7639 79.2841 91.7954 78.0042 91.7954Z" fill="white"/>
<path d="M78.0042 119.722C76.7242 119.722 75.6964 118.69 75.6964 117.406V103.608C75.6964 102.324 76.7242 101.292 78.0042 101.292C79.2841 101.292 80.312 102.324 80.312 103.608V117.406C80.312 118.69 79.2841 119.722 78.0042 119.722Z" fill="white"/>
<path d="M78.0042 63.8881C76.7242 63.8881 75.6964 62.8567 75.6964 61.5723V47.7744C75.6964 46.4899 76.7242 45.4585 78.0042 45.4585C79.2841 45.4585 80.312 46.4899 80.312 47.7744V61.5723C80.312 62.8372 79.2841 63.8881 78.0042 63.8881Z" fill="white"/>
<path d="M97.3978 91.7954C96.1179 91.7954 95.09 90.7639 95.09 89.4795V75.6816C95.09 74.3972 96.1179 73.3657 97.3978 73.3657C98.6778 73.3657 99.7056 74.3972 99.7056 75.6816V89.4795C99.7056 90.7639 98.6778 91.7954 97.3978 91.7954Z" fill="white"/>
<path d="M97.3978 119.722C96.1179 119.722 95.09 118.69 95.09 117.406V103.608C95.09 102.324 96.1179 101.292 97.3978 101.292C98.6778 101.292 99.7056 102.324 99.7056 103.608V117.406C99.7056 118.69 98.6778 119.722 97.3978 119.722Z" fill="white"/>
<path d="M97.3978 63.8881C96.1179 63.8881 95.09 62.8567 95.09 61.5723V47.7744C95.09 46.4899 96.1179 45.4585 97.3978 45.4585C98.6778 45.4585 99.7056 46.4899 99.7056 47.7744V61.5723C99.7056 62.8372 98.6778 63.8881 97.3978 63.8881Z" fill="white"/>
<path d="M116.791 91.7954C115.511 91.7954 114.484 90.7639 114.484 89.4795V75.6816C114.484 74.3972 115.511 73.3657 116.791 73.3657C118.071 73.3657 119.099 74.3972 119.099 75.6816V89.4795C119.099 90.7639 118.071 91.7954 116.791 91.7954Z" fill="white"/>
<path d="M116.791 119.722C115.511 119.722 114.484 118.69 114.484 117.406V103.608C114.484 102.324 115.511 101.292 116.791 101.292C118.071 101.292 119.099 102.324 119.099 103.608V117.406C119.099 118.69 118.071 119.722 116.791 119.722Z" fill="white"/>
<path d="M116.791 63.8881C115.511 63.8881 114.484 62.8567 114.484 61.5723V47.7744C114.484 46.4899 115.511 45.4585 116.791 45.4585C118.071 45.4585 119.099 46.4899 119.099 47.7744V61.5723C119.099 62.8372 118.071 63.8881 116.791 63.8881Z" fill="white"/>
<path d="M138.454 133.753C137.174 133.753 136.146 132.722 136.146 131.438V34.5409H58.6494V131.438C58.6494 132.722 57.6215 133.753 56.3415 133.753C55.0615 133.753 54.0337 132.722 54.0337 131.438V32.225L56.3415 29.9092H138.454L140.762 32.225V131.438C140.762 132.722 139.734 133.753 138.454 133.753Z" fill="white"/>
</g>
<defs>
<clipPath id="clip0_2_1067">
<rect width="341" height="303" fill="white" transform="translate(0.262085 0.683105)"/>
</clipPath>
</defs>
</svg>
